<mxfile host="app.diagrams.net" modified="2023-10-08T01:03:56.617Z" agent="Mozilla/5.0 (Windows NT 10.0; Win64; x64) AppleWebKit/537.36 (KHTML, like Gecko) Chrome/114.0.0.0 Safari/537.36" version="21.7.1" etag="VCynS7HCTnDHp0USBtfj" type="github">
  <diagram name="第 1 页" id="QcnNYlq4lqddo0QaK5oL">
    <mxGraphModel>
      <root>
        <mxCell id="0" />
        <mxCell id="1" parent="0" />
      </root>
    </mxGraphModel>
  </diagram>
</mxfile>
